<?xml version="1.0" standalone="no"?>
<!DOCTYPE svg PUBLIC "-//W3C//DTD SVG 20010904//EN"
 "http://www.w3.org/TR/2001/REC-SVG-20010904/DTD/svg10.dtd">
<svg version="1.0" xmlns="http://www.w3.org/2000/svg"
 width="1280.000000pt" height="1280.000000pt" viewBox="0 0 1280.000000 1280.000000"
 preserveAspectRatio="xMidYMid meet">
<metadata>
Created by potrace 1.15, written by Peter Selinger 2001-2017
</metadata>
<g transform="translate(0.000000,1280.000000) scale(0.100000,-0.100000)"
fill="#000000" stroke="none">
<path d="M6015 12413 c-462 -30 -960 -122 -1404 -259 -1166 -362 -2215 -1090
-2969 -2061 -655 -845 -1073 -1843 -1211 -2893 -41 -316 -46 -398 -46 -805 0
-416 7 -524 56 -870 128 -902 487 -1811 1014 -2565 390 -557 888 -1062 1430
-1451 867 -622 1824 -985 2915 -1105 197 -21 784 -30 1006 -15 2081 145 3911
1329 4906 3174 615 1139 842 2500 632 3796 -257 1592 -1134 3005 -2450 3947
-898 643 -1953 1022 -3069 1104 -126 9 -684 11 -810 3z m710 -793 c1866 -117
3514 -1210 4356 -2892 613 -1223 714 -2670 279 -3978 -211 -634 -525 -1195
-967 -1725 -132 -159 -426 -456 -588 -594 -1297 -1108 -3014 -1514 -4672
-1106 -1356 334 -2548 1230 -3253 2445 -390 674 -617 1392 -691 2190 -16 174
-16 706 0 880 74 799 300 1516 691 2190 704 1214 1894 2109 3250 2444 525 130
1063 179 1595 146z"/>
<path d="M6298 11522 l-98 -3 0 -319 0 -320 200 0 200 0 0 320 0 320 -89 0
c-49 0 -95 1 -103 3 -7 1 -57 1 -110 -1z"/>
<path d="M3875 10857 c-172 -98 -225 -131 -225 -140 0 -14 311 -547 319 -547
4 0 57 30 117 66 60 36 135 80 167 97 31 17 57 35 57 39 0 9 -299 519 -314
536 -9 10 -35 -1 -121 -51z"/>
<path d="M8787 10883 c-61 -98 -297 -503 -297 -510 0 -5 39 -31 88 -58 48 -26
122 -70 165 -97 43 -26 82 -48 86 -48 8 0 321 534 321 548 0 7 -163 106 -282
172 l-57 31 -24 -38z"/>
<path d="M2002 9028 c-87 -145 -145 -259 -136 -268 13 -12 534 -310 542 -310
7 0 204 342 200 345 -2 1 -113 64 -248 140 -135 75 -259 146 -277 156 l-31 20
-50 -83z"/>
<path d="M10475 8955 c-148 -85 -274 -156 -279 -158 -5 -2 13 -41 41 -88 28
-46 72 -123 99 -171 26 -49 51 -88 54 -88 8 0 531 299 544 310 5 5 -10 43 -34
87 -42 76 -151 263 -154 263 0 -1 -122 -70 -271 -155z"/>
<path d="M6271 6884 c-179 -48 -326 -206 -363 -390 -7 -32 -12 -60 -13 -61 -1
-2 -460 -172 -1021 -379 -1018 -375 -2863 -1057 -2896 -1069 -10 -4 -18 -16
-18 -27 0 -17 4 -19 28 -13 29 7 952 267 2127 600 402 114 991 280 1309 370
l579 164 51 -45 c63 -55 167 -109 243 -125 78 -16 204 -6 275 21 122 46 218
131 278 248 19 36 26 42 55 42 18 0 147 7 286 15 140 8 733 42 1319 75 1289
72 1220 67 1220 90 0 23 69 18 -1220 90 -586 33 -1179 67 -1319 75 -139 8
-268 15 -287 15 -31 0 -36 5 -60 52 -36 71 -132 169 -203 207 -112 59 -253 77
-370 45z"/>
<path d="M1280 6400 l0 -200 320 0 320 0 0 200 0 200 -320 0 -320 0 0 -200z"/>
<path d="M10880 6400 l0 -200 320 0 320 0 0 200 0 200 -320 0 -320 0 0 -200z"/>
<path d="M2133 4197 c-144 -84 -265 -155 -268 -159 -8 -8 56 -131 137 -266
l50 -83 31 20 c18 10 142 81 277 156 135 76 246 139 248 140 6 5 -194 344
-203 344 -5 0 -128 -69 -272 -152z"/>
<path d="M10336 4263 c-27 -49 -71 -125 -98 -171 -28 -46 -48 -85 -47 -86 2
-2 110 -63 239 -136 129 -72 254 -143 276 -156 l42 -24 55 93 c96 161 140 248
131 256 -14 13 -535 311 -543 311 -4 0 -29 -39 -55 -87z"/>
<path d="M3806 2361 c-86 -149 -156 -273 -156 -278 0 -8 148 -99 282 -173 l57
-31 15 23 c42 66 306 520 306 526 0 4 -26 22 -57 39 -32 17 -107 61 -167 97
-60 36 -113 66 -117 66 -4 0 -77 -121 -163 -269z"/>
<path d="M8783 2606 c-18 -12 -91 -56 -163 -97 -71 -40 -130 -77 -130 -82 0
-8 237 -415 297 -510 l24 -38 57 31 c120 66 282 165 282 173 0 17 -314 547
-324 547 -6 -1 -26 -11 -43 -24z"/>
<path d="M6200 1600 l0 -320 200 0 200 0 0 320 0 320 -200 0 -200 0 0 -320z"/>
</g>
</svg>
